<svg width="825" height="802" viewBox="0 0 825 802" fill="none" xmlns="http://www.w3.org/2000/svg">
<path d="M619.216 63.642L620.393 64.29L621.287 67.844L623.999 69.0846L622.702 70.2413L622.938 72.0762L625.139 76.5401L618.343 79.2614L615.187 83.9586L614.139 84.1483L613.03 82.3839L611.868 82.2832L611.309 80.2838L610.649 79.7566L609.641 80.7656L609.942 79.7936L607.737 78.2407L607.048 80.591L605.288 81.108L605.395 77.4752L602.423 76.0045L602.223 76.9245L599.173 76.4729L597.566 79.8456L594.796 79.0347L595.485 77.3291L594.452 76.4393L587.68 77.46L586.38 74.7824L582.84 70.7315L580.205 69.5295L575.719 71.5692L575.128 70.7012L575.907 70.0549L575.009 69.4422L575.615 67.901L571.237 67.4545L571.054 66.469L568.45 68.6766L564.364 66.4976L565.713 62.9503L568.484 62.5709L569.685 63.4271L569.327 62.1327L570.64 62.3275L572.688 59.7539L572.96 55.0684L576.933 53.6196L576.294 54.3532L577.291 56.3006L578.987 56.9201L578.208 55.5704L580.093 56.5827L580.722 54.788L584.489 54.5211L584.931 52.0969L587.36 54.0544L593.441 54.1652L593.102 56.2738L595.226 57.1988L594.897 58.8054L596.573 59.084L601.251 56.7808L602.398 53.8009L604.509 53.6733L605.219 57.4724L606.455 57.548L607.547 61.107L609.27 63.3415L613.759 64.9195L613.707 67.4008L618.435 67.0415L617.84 64.4612L619.216 63.642Z" fill="#60B896" stroke="white" stroke-width="0.75" stroke-linecap="round"/>
<path d="M581.199 114.026L580.134 110.425L581.496 109.09L580.468 108.278L581.306 107.304L579.047 103.516L577.7 103.271L578.374 101.854L577.636 99.5865L579.832 97.1858L579.445 92.7622L582.205 90.4186L580.44 90.0509L580.735 87.6369L579.674 85.399L582.179 83.0722L586.239 82.0683L587.268 79.5266L586.024 77.0236L586.383 74.7773L582.843 70.7264L580.208 69.5244L575.722 71.5642L575.131 70.6962L575.91 70.0499L575.011 69.4371L575.618 67.896L571.239 67.4494L571.056 66.464L568.453 68.6716L564.367 66.4925L558.349 65.7908L557.526 66.4338L555.906 67.3907L556.653 69.3431L551.941 65.2838L549.902 65.816L547.51 68.4332L547.713 69.7326L549.749 70.4091L548.419 72.5949L547.275 72.1937L546.432 73.1019L542.579 71.5104L542.173 72.6604L540.836 72.5295L538.515 74.3627L538.908 76.0432L537.598 78.9961L535.705 78.4371L531.236 83.4114L528.184 84.9323L526.974 83.1394L525.19 83.1192L523.799 84.6654L523.675 83.3442L522.064 85.8725L518.798 83.0219L520.178 90.4102L519.542 94.6844L518.003 97.2815L517.122 96.9692L515.13 98.9384L515.456 99.9558L520.375 100.057L523.945 102.402L524.926 101.829L528.315 103.453L529.541 105.303L531.249 104.51L533.774 105.701L534.709 105.566L535.282 103.701L541.85 103.532L544.852 101.93L545.124 100.364L544.022 98.7269L541.578 98.2569L541.039 96.6587L544.761 96.9138L550.74 92.8881L555.471 96.0459L558.591 95.6782L554.817 99.2389L556.487 101.544L555.098 103.936L556.381 103.582L558.019 106.548L561.819 101.789L563.541 102.44L563.398 104.43L566.975 105.603L568.126 103.172L571.584 102.734L574.356 100.867L576.525 103.597L575.213 105.487L576.061 107.072L575.329 111.336L579.454 114.645L581.199 114.026Z" fill="#60B896" stroke="white" stroke-width="0.75" stroke-linecap="round"/>
<path d="M513.359 44.4517L512.794 46.3387L509.409 47.8815L509.35 52.0617L502.331 53.905L501.026 51.0494L501.399 50.0404L500.14 48.3784L501.386 47.5592L501.638 45.3684L500.499 43.144L503.514 41.7489L507.173 37.6476L506.49 36.5379L508.604 33.8838L505.618 32.299L505.867 31.2145L507.931 30.6102L509.115 31.515L510.242 30.4171L510.126 28.1709L507.776 24.8939L513.842 24.2123L519.553 25.9935L522.975 28.4093L526.118 29.0203L525.374 31.8995L530.221 34.5217L537.486 34.0013L537.535 36.2106L539.075 36.5379L538.768 39.0175L534.757 40.8189L535.179 41.9655L532.97 44.4383L533.759 45.9828L532.503 46.6123L529.722 47.0169L529.766 45.4473L528.808 45.7797L528.849 41.2621L529.747 40.097L526.121 37.6376L526.057 38.3897L524.497 38.2419L523.748 40.5553L517.667 39.7495L517.586 42.0142L513.359 44.4517Z" fill="#60B896" stroke="white" stroke-width="0.75" stroke-linecap="round"/>
<path d="M586.997 123.805L585.233 127.229L586.107 130.469L583.201 134.146V134.163L580.43 135.136L577.995 132.786L568.371 129.361L559.453 131.544L559.336 131.527L539.417 129.412L535.722 126.961L534.748 124.459V121.941L533.27 120.313L531.171 118.751L530.919 117.006L529.34 115.646L528.081 112.339C528.081 112.339 524.823 112.221 521.816 112.07L523.563 111.549L524.705 108.88L525.612 108.763L524.688 108.259L523.949 102.4L524.923 101.829L528.316 103.441L529.542 105.304L531.255 104.499L533.774 105.691L534.715 105.556L535.286 103.693L541.853 103.525L544.859 101.93L545.127 100.352L544.019 98.7236L541.584 98.2535L541.046 96.6586L544.758 96.9105L550.737 92.8814L555.473 96.0375L558.597 95.6682L554.818 99.2272L556.481 101.544L555.104 103.928L556.38 103.575L558.026 106.547L561.821 101.779L563.535 102.434L563.4 104.431L566.977 105.607L568.119 103.172L571.579 102.736L574.35 100.856L576.534 103.592L575.207 105.489L576.063 107.067L575.324 111.331L579.456 114.638L581.203 114.017V114.034L583.016 113.01L584.259 110.139L586.174 110.022L585.502 110.828L587.265 112.59L586.56 114.269L587.937 113.933L586.728 117.946L586.997 123.805Z" fill="#60B896" stroke="white" stroke-width="0.75" stroke-linecap="round"/>
<path d="M642.503 103.424L640.152 104.784L641.714 111.029L643.192 112.674L640.454 114.873L641.966 116.2L639.648 118.5L640.034 119.658L638.187 119.843L636.339 122.646L627.354 127.666L626.111 134.784L612.239 134.096L605.084 131.594L606.377 123.066L609.921 116.452L609.972 113.598L608.896 112.003L610.156 108.628L608.695 104.633L606.562 104.465L605.454 106.093L604.714 108.36L605.554 108.108L605.404 110.778L603.875 107.235L606.209 101.175L608.393 99.8148L610.794 95.7185L609.031 93.1005L610.357 91.1195L609.082 90.145L608.88 86.0487L614.136 84.1517L615.194 83.9502L618.335 79.2664L625.137 76.5476V76.53L622.937 72.0812L622.701 70.2345L623.995 69.0762L621.291 67.8515L620.384 64.2917L619.209 63.6369L619.88 61.3538L623.038 63.7041L625.758 63.6545L629.286 59.7094L631.401 59.9604L635.6 58.0969L639.245 59.91L638.137 62.0757L638.926 62.7648L638.876 69.7477L642.167 72.0812L642.705 78.4438L643.729 80.0722L641.395 83.2787L641.512 87.6444L644.989 90.3632L647.558 90.4807L643.612 96.8265L642.503 103.424Z" fill="#60B896" stroke="white" stroke-width="0.75" stroke-linecap="round"/>
<path d="M548.47 37.8759L550.34 37.3085L552.636 38.5206L555.162 37.7719L557.247 34.9666L565.403 36.3298L568.528 34.2615L569.256 35.3326L573.861 36.1401L573.434 33.8116L574.825 33.4859L575.329 32.1697L570.347 29.7758L569.173 24.2207L566.427 23.6281L566.894 21.6421L566.125 20.5341L556.431 25.5604L550.58 26.994L549.141 26.0422L546.326 26.5945L542.329 29.017L540.592 32.4383L537.483 34.008L537.532 36.2173L539.072 36.5447L540.333 36.5044L541.01 39.6168L542.654 39.7461L544.321 38.1378L546.418 39.2727L548.47 37.8759Z" fill="#60B896" stroke="white" stroke-width="0.75" stroke-linecap="round"/>
<path d="M548.471 37.8759L549.406 39.0796L549.196 42.5178L551.285 44.1177L551.094 46.379L553.435 47.0942L553.272 49.06L556.947 53.0337L555.306 53.9084L555.388 57.0443L558.265 57.7142L558.746 61.2144L557.587 62.2268L559.538 64.2631L557.523 66.4338L555.902 67.3907L556.65 69.3431L551.937 65.2838L549.898 65.816L547.507 68.4332L547.71 69.7326L549.745 70.4092L548.415 72.5949L547.271 72.1937L546.428 73.1019L542.574 71.5104L542.168 72.6604L540.831 72.5295L538.51 74.3627L538.903 76.0432L537.593 78.9962L535.7 78.4371L529.833 77.6514L528.913 76.2983L529.615 75.3985L528.797 74.5289L526.936 74.9318L524.463 73.1825L524.746 72.1299L524.716 69.4405L528.223 68.957L527.41 64.0432L530.213 59.2452L528.586 57.6134L528.799 54.1249L527.18 53.6649L524.694 49.3924L522.674 48.783L521.06 49.881L516.27 50.3796L514.962 48.7293L515.464 45.5816L513.351 44.4534L517.577 42.0192L517.657 39.7545L523.739 40.5603L524.488 38.247L526.048 38.3947L526.112 37.6426L529.738 40.102L528.839 41.2671L528.799 45.7847L529.756 45.4523L529.713 47.022L532.494 46.6174L533.75 45.9878L532.961 44.4434L535.169 41.9705L534.748 40.8239L538.758 39.0226L539.065 36.543L540.327 36.5027L541.004 39.6152L542.648 39.7444L544.314 38.1362L546.411 39.271L548.471 37.8759Z" fill="#60B896" stroke="white" stroke-width="0.75" stroke-linecap="round"/>
<path d="M604.56 31.1843L603.656 31.7719L602.954 31.0231L602.03 32.7875L596.011 34.9095L594.915 36.3734L595.62 38.4618L591.205 39.6336L591.102 42.2223L588.996 42.0041L588.326 40.8289L586.438 41.1781L586.786 37.7987L588.415 36.0897L585.392 36.6958L581.573 35.984L580.953 33.7612L579.159 36.0914L575.485 35.8446L573.861 36.1367L573.434 33.8082L574.825 33.4826L575.329 32.1664L570.347 29.7724L569.173 24.2173L566.427 23.6247L566.894 21.6387L566.125 20.5307L565.307 18.7747L566.107 16.8726L568.56 14.9185L573.261 13.8408L575.979 15.2308L577.27 18.6572L582.114 19.7753L583.192 18.8973L583.847 19.7031L586.611 19.0433L587.92 21.7277L590.41 22.1273L594.841 20.2907L597.627 20.3595L601.056 17.1228L600.588 15.3685L597.504 13.1894L601.649 13.2901L603.102 14.4737L602.649 15.5632L604.217 18.1787L604.044 19.0651L603.006 18.8822L605.265 20.9857L606.352 26.7338L606.224 28.238L604.216 29.0623L604.56 31.1843Z" fill="#60B896" stroke="white" stroke-width="0.75" stroke-linecap="round"/>
<path d="M615.728 30.9442L616.689 28.515L615.972 27.261L617.599 25.3472L619.176 25.5872L619.228 23.3578L621.141 23.3427L620.526 22.1927L618.525 20.7355L619.42 16.9465L616.445 17.9655L614.699 16.7719L613.5 17.6164L609.538 14.2823L605.939 14.5996L605.132 12.7042L601.651 13.2901L603.104 14.4737L602.65 15.5632L604.219 18.1787L604.047 19.0651L603.01 18.8822L605.268 20.9857L606.355 26.7338L606.227 28.238L604.219 29.0623L604.556 31.1877L606.489 30.9829L607.225 32.4535L607.559 31.2078L609.413 30.355L609.707 32.3477L614.264 33.1921L615.728 30.9442Z" fill="#60B896" stroke="white" stroke-width="0.75" stroke-linecap="round"/>
<path d="M615.729 30.9442L617.301 30.4255L618.453 31.2666L620.45 35.6482L622.413 35.0069L622.75 35.9185L622.672 34.6241L624.852 35.6045L626.397 38.7103L623.32 41.3024L621.602 40.6107L621.274 42.8217L623.086 45.1417L622.458 45.8754L618.733 46.1641L615.106 49.6577L613.099 49.201L608.868 50.769L604.076 49.8642L603.245 52.1238L604.505 53.6666L602.394 53.7942L601.247 56.774L596.569 59.0773L594.893 58.7987L595.222 57.1921L593.098 56.267L593.437 54.1585L593.306 53.2016L594.744 52.4058L594.922 49.5754L593.979 47.1529L591.925 46.7836L592.931 45.5816L591.165 44.6465L592.062 43.7215L591.099 42.2257L591.202 39.637L595.617 38.4652L594.912 36.3768L596.008 34.9129L602.027 32.7909L602.951 31.0265L603.653 31.7752L604.557 31.1877L606.49 30.9828L607.225 32.4535L607.56 31.2078L609.414 30.355L609.708 32.3477L614.264 33.1921L615.729 30.9442Z" fill="#60B896" stroke="white" stroke-width="0.75" stroke-linecap="round"/>
<path d="M593.442 54.1585L593.311 53.2016L594.748 52.4058L594.926 49.5754L593.984 47.1529L591.93 46.7836L592.936 45.5816L591.169 44.6465L592.066 43.7215L591.104 42.2257L588.998 42.0074L588.328 40.8323L586.44 41.1815L586.788 37.8021L588.417 36.0931L585.394 36.6991L581.574 35.9873L580.955 33.7646L579.161 36.0947L575.486 35.848L575.453 38.5323L569.914 39.8166L570.393 43.2094L568.846 46.3622L571.061 45.6823L572.952 47.1579L572.509 49.656L573.832 50.4887L575.542 49.9934L577.115 51.3415L576.934 53.6146L576.294 54.3482L577.292 56.2956L578.988 56.9151L578.209 55.5653L580.093 56.5776L580.723 54.783L584.49 54.5161L584.932 52.0919L587.36 54.0494L593.442 54.1585Z" fill="#60B896" stroke="white" stroke-width="0.75" stroke-linecap="round"/>
<path d="M524.754 72.1265L524.724 69.4371L528.231 68.9536L527.418 64.0398L530.221 59.2419L528.593 57.6101L528.807 54.1216L527.188 53.6616L524.702 49.3891L522.682 48.7797L521.068 49.8776L516.278 50.3762L514.969 48.7259L515.472 45.5782L513.359 44.4501L512.795 46.337L509.409 47.8798L509.35 52.06L502.331 53.9033L501.026 51.0477L499.711 52.5888L497.426 52.4344L496.09 54.5194L493.222 55.9649L492.911 59.9688L490.446 61.8708L491.403 63.7242L495.116 62.4349L499.743 64.0936L505.437 61.6408L506.89 66.2978L504.174 67.347L503.017 70.8641L507.756 71.3543L507.15 69.6906L509.382 68.6179L508.734 70.4494L509.847 71.7354L513.327 69.1131L517.895 68.22L520.127 71.0219L522.087 70.9396L522.393 72.9827L524.754 72.1265Z" fill="#60B896" stroke="white" stroke-width="0.75" stroke-linecap="round"/>
<path d="M620.528 22.1952L621.142 23.3452L619.229 23.3603L619.177 25.5898L617.6 25.3497L615.973 27.2635L616.69 28.5176L615.729 30.9468L617.301 30.428L618.454 31.2691L620.45 35.6507L622.414 35.0094L622.751 35.921L622.672 34.6267L624.852 35.6071L626.397 38.7128L628.72 38.6809L629.177 41.6356L630.559 39.5254L633.619 38.142L633.072 36.8779L633.859 36.0721L637.766 34.7358L641.642 31.16L643.179 30.9602L644.349 27.5187L643.637 25.5931L642.188 24.9166L647.176 24.0234L650.505 21.8024L650.804 20.9278L648.812 20.362L649.146 16.625L641.669 19.0442L639.269 17.9446L636.209 18.4029L634.56 16.9574L626.607 21.4499L620.528 22.1952Z" fill="#60B896" stroke="white" stroke-width="0.75" stroke-linecap="round"/>
<path d="M605.404 110.778L605.554 108.108L604.714 108.36L605.454 106.093L606.563 104.465L608.695 104.633L610.156 108.628L608.896 112.003L609.972 113.598L609.922 116.452L606.377 123.066L605.084 131.594L597.661 132.266L597.509 139.955L594.907 139.367L586.19 134.096L586.106 130.469L585.232 127.229L586.997 123.805L586.728 117.946L587.937 113.933L586.56 114.269L587.265 112.59L585.501 110.828L586.173 110.022L584.259 110.139L583.016 113.01L581.202 114.018L580.127 110.425L581.487 109.082L580.463 108.276L581.303 107.302L579.052 103.525L577.692 103.273L578.381 101.846L577.642 99.5797L579.825 97.1791L579.439 92.7639L582.21 90.4136L580.446 90.061L580.731 87.6444L579.673 85.394L582.176 83.0781L586.24 82.0708L587.265 79.535L586.022 77.0168L586.374 74.7841L587.684 77.4542L594.453 76.4301L595.495 77.319L594.806 79.0314L597.56 79.8372L599.173 76.4628L602.229 76.917L602.43 75.9928L605.404 77.4701L605.285 81.0963L607.049 80.5927L607.737 78.2424L609.938 79.7877L609.635 80.7605L610.643 79.7533L611.315 80.2745L611.87 82.2882L613.029 82.389L614.136 84.1517L608.88 86.0487L609.082 90.1449L610.357 91.1195L609.031 93.1005L610.794 95.7185L608.393 99.8148L606.209 101.175L603.875 107.235L605.404 110.778Z" fill="#60B896" stroke="white" stroke-width="0.75" stroke-linecap="round"/>
<path d="M639.25 59.9134L635.597 58.0986L631.4 59.9637L629.292 59.7018L625.762 63.6504L623.038 63.7024L619.886 61.3504L619.219 63.6403L617.845 64.4545L618.44 67.0348L613.712 67.394L613.764 64.9128L609.275 63.3347L607.552 61.1003L606.46 57.5412L605.224 57.4657L604.514 53.6666L603.254 52.1238L604.085 49.8642L608.877 50.769L613.107 49.201L615.114 49.6577L618.742 46.1641L622.467 45.8754L623.095 45.1417L621.283 42.8216L621.611 40.6107L623.329 41.3023L626.405 38.7103L628.728 38.6784L629.185 41.6331L630.567 39.5228L633.627 38.1395L638.993 39.5598L640.244 38.6683L642.221 39.736L641.223 42.6185L641.863 44.7204L640.098 46.5116L640.762 47.8731L639.304 50.5122L640.703 53.5776L639.245 56.1814L639.25 59.9134Z" fill="#60B896" stroke="white" stroke-width="0.75" stroke-linecap="round"/>
<path d="M564.366 66.4934L558.348 65.7916L557.526 66.4346L559.541 64.264L557.589 62.2276L558.748 61.2153L558.268 57.715L555.391 57.0452L555.309 53.9092L556.949 53.0345L553.275 49.0609L553.438 47.095L551.097 46.3798L551.288 44.1185L549.199 42.5186L549.409 39.0805L548.473 37.8768L550.342 37.3094L552.638 38.5214L555.164 37.7727L557.25 34.9675L565.406 36.3306L568.531 34.2624L569.258 35.3334L573.863 36.1409L575.487 35.8488L575.454 38.5332L569.915 39.8175L570.394 43.2103L568.847 46.3631L571.062 45.6831L572.953 47.1588L572.51 49.6568L573.833 50.4895L575.543 49.9943L577.117 51.3423L576.935 53.6154L572.962 55.0642L572.689 59.7497L570.642 62.3233L569.329 62.1285L569.687 63.4229L568.486 62.5667L565.715 62.9461L564.366 66.4934Z" fill="#60B896" stroke="white" stroke-width="0.75" stroke-linecap="round"/>
<path d="M407.456 68.0152L407.883 65.0622L405.753 63.5362L404.608 60.8384L405.039 58.9934L403.696 59.2939L402.554 58.1137L402.547 56.403L404.781 54.9173L401.709 54.0175L403.718 52.055L401.205 49.332L401.424 47.3644L405.167 44.6112L407.011 40.4697L399.736 41.5659L395.253 40.4126L392.583 42.4288L385.516 42.9559L380.385 44.9403L378.722 47.7724L373.491 49.8675L371.811 55.379L375.262 55.9179L378.912 54.5731L379.696 57.7528L380.598 57.788L379.209 60.6201L380.064 60.3566L380.936 63.7091L383.917 62.5961L383.334 63.0057L384.33 63.0745L385.238 65.0538L387.863 66.7074L392.63 65.3426L396.278 70.8607L396.378 68.4869L397.248 67.9279L396.603 67.3437L400.402 66.3028L400.463 64.8507L402.51 62.8966L404.25 66.046L407.456 68.0152Z" fill="#75C5EA" stroke="white" stroke-width="0.75" stroke-linecap="round"/>
<path d="M311.083 102.628L309.931 102.746L309.491 101.218L303.631 98.2837L303.075 98.8377L302.45 97.5417L300.635 98.3055L296.708 96.9743L295.166 99.2171L293.348 99.6603L291.582 98.5389L291.922 96.9373L290.499 95.8914L283.785 100.805L282.656 100.209L279.007 102.17L273.217 102.586L270.13 101.17L268.171 101.865L267.998 103.459L272.368 107.571L274.141 108.915L276.472 108.55L276.518 111.051L279.233 112.663L279.383 114.145L284.636 117.026L280.436 122.413L281.727 122.94L284.028 126.937L286.186 127.914L282.627 132.222L285.284 135.842L284.927 138.875L286.939 145.181L293.002 140.782L301.387 140.819L303.446 138.455L306.014 137.645L316.247 128.188L315.639 126.857L314.032 126.524L316.734 124.928L318.892 120.306L318.506 119.154L319.341 119.215L318.881 117.528L314.892 117.983L315.619 112.621L313.642 113.025L314.991 111.12L312.991 111.042L312.141 107.975L314.346 104.405L311.083 102.628Z" fill="#75C5EA" stroke="white" stroke-width="0.75" stroke-linecap="round"/>
<path d="M420.57 84.2323L418.341 84.6721L418.712 87.0157L430.094 93.9105L431.857 96.9961L436.37 93.1366L438.135 94.4729L438.686 96.3615L441.622 97.0632L441.608 99.6167L440.47 100.051L438.587 103.83L440.989 105.974L435.567 108.115L433.137 115.94L430.668 116.71L430.95 120.784L425.889 121.411L425.158 123.163L421.836 124.651L417.894 128.957L409.703 131.9L406.615 135.405L406.002 139.498L403.241 141.138L402.782 139.226L396.442 142.966L397.799 145.224L394.113 147.675L392.234 145.028L391.871 141.934L382.565 142.429L383.693 134.233L377.023 132.845L379.804 127.965L374.809 125.91L374.278 125.018L375.546 124.127L374.791 122.146L373.009 122.915L370.101 117.769L370.748 114.902L369.814 113.353L375.125 109.443L372.446 105.358L370.09 104.297L369.618 102.633L364.081 103.285L365.881 100.313L368.487 98.4667L368.074 96.8735L370.048 94.5064L371.867 94.2362L374.421 95.5607L376.289 94.9698L377.755 91.4343L378.912 90.9625L376.408 88.3537L377.921 88.0515L380.822 83.22L382.86 83.0571L383.049 81.5999L384.411 81.7846L384.686 80.2519L388.142 80.5994L389.096 78.9441L391.53 77.9838L393.789 80.7874L394.778 76.9296L396.909 78.4908L397.813 77.9821L400.085 79.2647L400.188 81.6402L403.468 81.3481L405.223 84.2339L406.588 84.4942L406.877 82.7365L408.486 84.3683L414.863 83.643L418.951 81.3985L418.012 82.5249L420.615 82.6374L420.57 84.2323Z" fill="#75C5EA" stroke="white" stroke-width="0.75" stroke-linecap="round"/>
<path d="M377.022 132.843L372.231 131.611L364.534 136.872L361.625 133.018L356.756 136.39L353.107 135.966L349.588 132.395L345.673 131.114L343.154 128.599L339.459 130.694L339.229 127.08L337.583 125.24L338.013 122.705L342.197 124.802L343.285 127.963L345.166 125.166L342.852 120.398L339.303 118.092L338.809 116.238L335.837 115.965L336.515 113.965L334.283 112.453L336.238 111.108L335.573 107.604L338.616 107.274L337.802 104.314L338.393 102.726L340.606 102.049L342.256 102.061L343.373 99.9793L343.952 103.297L348.29 102.979L350.475 104.436L352.291 104.274L352.635 105.795L354.331 106.906L358.52 104.138L359.82 105.632L361.497 105.833L364.085 103.285L369.623 102.633L370.095 104.297L372.451 105.358L375.13 109.443L369.819 113.353L370.753 114.902L370.106 117.769L373.014 122.915L374.795 122.146L375.551 124.127L374.283 125.018L374.814 125.91L379.809 127.965L377.022 132.843Z" fill="#75C5EA" stroke="white" stroke-width="0.75" stroke-linecap="round"/>
<path d="M328.526 87.9995L327.448 89.6665L327.851 91.2848L325.326 92.5389L325.021 91.4108L320.254 92.2451L320.14 93.4673L318.515 94.2328L317.149 93.3128L315.837 95.6547L314.707 95.3542L315.187 98.6211L312.87 99.3951L312.453 101.831L311.079 102.628L314.341 104.411L312.136 107.982L312.986 111.049L314.986 111.126L313.637 113.032L315.614 112.627L314.887 117.989L318.876 117.534L319.336 119.222L318.501 119.161L318.887 120.313L316.729 124.934L314.027 126.531L315.634 126.863L316.242 128.195L306.008 137.651L307.822 140.389L311.404 137.759L312.392 139.468L312.966 138.768L317.948 140.268L324.756 136.055L327.852 137.802L333.113 154.202L333.641 152.307L335.075 152.376L338.587 147.533L341.328 146.339L343.635 146.673L346.158 141.524L347.74 140.364L345.671 131.116L343.152 128.601L339.457 130.696L339.227 127.082L337.581 125.242L338.011 122.707L342.194 124.804L343.283 127.965L345.164 125.168L342.849 120.4L339.3 118.093L338.807 116.24L335.834 115.966L336.513 113.967L334.281 112.454L336.235 111.11L335.57 107.606L338.614 107.275L337.799 104.316L338.39 102.727L340.604 102.051L339.253 98.3525L339.883 96.7325L342.364 95.5389L340.76 94.9429L338.711 96.6536L338.345 95.732L340.548 94.2932L341.185 92.6363L336.605 91.2009L336.014 90.1399L334.751 91.6206L332.126 91.4192L332.515 87.6352L329.848 88.6458L328.526 87.9995Z" fill="#75C5EA" stroke="white" stroke-width="0.75" stroke-linecap="round"/>
<path d="M343.137 73.2295L348.115 70.1254L352.042 62.2838L355.14 59.0236L370.57 49.9666L373.492 49.8692L371.813 55.3807L368.489 59.5289L370.654 61.7953L369.589 62.9688L370.192 64.431L366.621 64.5871L365.693 65.6028L363.633 64.6425L362.213 66.3515L362.738 67.6392L363.87 67.5787L362.879 69.2441L363.261 70.7718L361.024 73.1842L359.551 72.558L358.095 73.4629L355.166 76.9447L353.649 76.7164L352.631 78.333L352.581 77.0521L350.784 77.3543L349.056 74.9587L345.274 75.9643L343.137 73.2295Z" fill="#75C5EA" stroke="white" stroke-width="0.75" stroke-linecap="round"/>
<path d="M355.166 76.9405L356.136 77.2661L358.18 83.3282L361.062 82.5006L361.272 83.3803L362.713 82.3545L364.866 85.3797L368.04 85.3109L369.582 86.8503L372.473 86.7076L372.968 87.819L376.406 88.3529L378.91 90.9617L377.753 91.4334L376.287 94.969L374.419 95.5599L371.865 94.2353L370.046 94.5056L368.072 96.8727L368.486 98.4659L365.879 100.313L364.079 103.284L361.49 105.832L359.813 105.631L358.513 104.137L354.324 106.905L352.628 105.794L352.284 104.273L350.468 104.436L348.283 102.978L343.945 103.296L343.366 99.9785L342.249 102.06L340.6 102.048L339.249 98.35L339.879 96.73L342.36 95.5364L340.756 94.9404L338.707 96.6511L338.341 95.7294L340.544 94.2907L341.181 92.6338L336.601 91.1984L336.01 90.1374L334.747 91.6181L332.122 91.4166L332.511 87.6327L329.844 88.6433L328.522 88.0037L329.058 86.7463L330.788 86.6036L330.167 85.0087L332.825 84.3708L333.267 81.448L337.676 77.9158L336.555 77.9058L338.048 75.3322L340.453 77.1604L343.109 73.316L345.272 75.9634L349.054 74.9578L350.782 77.3534L352.579 77.0513L352.63 78.3322L353.647 76.7155L355.166 76.9405Z" fill="#75C5EA" stroke="white" stroke-width="0.75" stroke-linecap="round"/>
<path d="M328.526 87.9995L329.061 86.7421L330.791 86.5994L330.17 85.0045L332.829 84.3666L333.27 81.4438L337.679 77.9116L336.559 77.9016L338.052 75.328L340.457 77.1562L343.139 73.2295L337.375 71.6766L336.307 70.4444L336.777 69.1652L335.272 67.7449L333.625 67.7869L332.491 68.9133L329.972 69.098L329.417 72.793L325.231 76.0112L323.004 76.0297L322.322 74.7538L318.041 73.5149L316.779 75.7628L315.349 76.1892L314.015 75.1987L309.633 78.9995L311.885 81.3985L311.513 82.6022L313.206 82.6139L312.562 84.3246L311.063 84.746L311.355 87.4169L311.375 86.3744L312.876 86.2989L312.537 85.2983L313.916 86.4013L316.553 86.4365L325.061 83.7102L326.364 88.6139L325.068 89.5607L325.022 91.4091L325.328 92.5372L327.852 91.2832L327.449 89.6648L328.526 87.9995Z" fill="#75C5EA" stroke="white" stroke-width="0.75" stroke-linecap="round"/>
<path d="M396.276 70.8658L397.573 71.9939L395.689 74.2351L394.503 73.9967L393.945 72.4976L392.278 73.4075L392.624 76.1791L391.53 77.9838L393.789 80.7874L394.778 76.9296L396.91 78.4908L397.813 77.9821L400.085 79.2647L400.188 81.6402L403.468 81.3481L405.223 84.2339L406.588 84.4942L406.877 82.7365L408.486 84.3683L414.863 83.643L418.951 81.3985L418.012 82.525L420.615 82.6374L420.565 84.2356L426.779 83.7051L427.971 80.4013L423.252 79.1623L422.669 76.8792L423.516 75.8383L427.254 76.2228L428.769 69.6638L426.146 69.4438L424.735 67.5821L422.673 67.4897L421.934 65.9167L417.421 67.107L417.431 65.4215L413.007 70.337L411.707 70.3689L411.036 68.4399L407.453 68.0185L404.246 66.0544L402.506 62.905L400.458 64.8591L400.398 66.3112L396.599 67.3521L397.244 67.9363L396.374 68.4953L396.276 70.8658Z" fill="#75C5EA" stroke="white" stroke-width="0.75" stroke-linecap="round"/>
<path d="M439.473 49.928L434.446 46.3924L426.591 46.3756L422.009 45.0074L417.04 46.6342L410.502 45.2811L410.018 47.1462L407.551 48.9895L405.166 44.6112L401.422 47.3644L401.204 49.332L403.717 52.055L401.708 54.0175L404.78 54.9173L402.546 56.403L402.553 58.1137L403.695 59.2939L405.038 58.9934L404.607 60.8384L405.752 63.5362L407.882 65.0622L407.455 68.0152L411.037 68.4366L411.709 70.3655L413.009 70.3336L417.433 65.4181L417.423 67.1036L421.936 65.9134L422.675 67.4864L424.737 67.5787L426.148 69.4405L428.771 69.6604L430.534 67.807L429.968 66.3364L433.302 66.4606L433.835 61.8003L435.281 62.1932L438.374 60.328L438.48 57.234L436.223 56.722L436.08 54.4237L434.889 54.0897L435.939 50.8832L438.2 50.9554L439.473 49.928Z" fill="#75C5EA" stroke="white" stroke-width="0.75" stroke-linecap="round"/>
<path d="M349.956 165.724L345.052 187.716L346.464 191.829L344.97 193.491L346.093 194.231L345.103 196.882L342.483 198.326L342.012 201.415L343.408 202.204L342.953 204.101L344.598 205.948L343.928 208.516L344.651 212.529L339.629 222.198L336.891 226.228L332.842 225.355L329.802 227.588L318.399 224.398L308.607 229.602L308.104 226.984L305.785 226.916L306.694 222.098L304.29 221.897L304.022 217.885L308.842 213.537L299.151 205.729L295.156 203.748L289.529 194.213L291.646 193.508L292.284 189.479L288.588 185.97L285.33 180.229L285.649 175.914L288.537 169.518L288.37 166.295L286.387 162.904L283.366 162.047L283.717 160.553L285.869 158.992L284.944 154.761L286.944 145.193L293.007 140.777L301.386 140.828L303.451 138.46L306.004 137.655L307.836 140.391L311.413 137.755L312.402 139.468L312.976 138.763L317.945 140.274L324.764 136.06L327.856 137.806L333.112 154.207L333.65 152.31L335.076 152.378L338.588 147.526L341.342 146.335L343.643 146.67L343.928 150.816L346.95 149.456L348.712 150.716L348.377 155.164L349.637 155.634L350.865 158.639L352.14 158.824L348.578 160.722L349.956 165.724Z" fill="#75C5EA" stroke="white" stroke-width="0.75" stroke-linecap="round"/>
<path d="M311.083 102.628L309.931 102.746L309.491 101.218L303.631 98.2837L303.075 98.8377L302.45 97.5417L300.635 98.3055L296.708 96.9743L295.166 99.2171L293.347 99.6603L291.582 98.5389L291.922 96.9373L290.499 95.8914L294.982 92.9267L297.714 93.1634L301.271 91.0767L304.672 81.6637L306.174 81.7225L309.633 78.9995L311.885 81.3985L311.513 82.6022L313.205 82.6139L312.562 84.3246L311.062 84.746L311.355 87.4169L311.375 86.3744L312.876 86.2989L312.537 85.2983L313.916 86.4013L316.553 86.4365L325.061 83.7102L326.364 88.6139L325.068 89.5607L325.022 91.4091L320.256 92.2434L320.142 93.4656L318.516 94.2311L317.151 93.3112L315.839 95.6531L314.709 95.3526L315.189 98.6195L312.871 99.3934L312.455 101.829L311.083 102.628Z" fill="#75C5EA" stroke="white" stroke-width="0.75" stroke-linecap="round"/>
<path d="M376.408 88.352L372.97 87.8182L372.474 86.7068L369.584 86.8495L368.042 85.3101L364.868 85.3789L362.715 82.3537L361.274 83.3795L361.064 82.4998L358.182 83.3274L356.138 77.2653L355.167 76.9396L358.096 73.4578L359.553 72.553L361.025 73.1791L363.263 70.7667L362.881 69.239L363.872 67.5737L362.74 67.6341L362.215 66.3465L363.635 64.6375L365.694 65.5977L366.623 64.5821L370.194 64.4259L369.591 62.9637L370.656 61.7903L368.491 59.5239L371.814 55.3756L375.266 55.9145L378.915 54.5698L379.7 57.7494L380.601 57.7847L379.212 60.6168L380.067 60.3532L380.939 63.7057L383.92 62.5927L383.337 63.0023L384.333 63.0712L385.242 65.0505L387.867 66.7041L392.633 65.3392L396.281 70.8574L397.578 71.9855L395.693 74.2267L394.507 73.9883L393.95 72.4892L392.282 73.3991L392.628 76.1707L391.535 77.9754L389.101 78.9357L388.147 80.591L384.691 80.2435L384.416 81.7762L383.053 81.5915L382.865 83.0487L380.826 83.2116L377.926 88.0431L376.408 88.352Z" fill="#75C5EA" stroke="white" stroke-width="0.75" stroke-linecap="round"/>
<path d="M508.045 193.139L486.078 191.628L484.786 192.333L480.285 190.469L478.754 191.125L478.251 190.268L477.547 191.527L476.808 190.99L475.229 192.232L462.045 192.836L468.19 196.581L468.746 201.449L454.386 198.024L445.366 200.727L427.179 202.321L421.956 191.293L422.206 188.724L421.132 187.246L427.834 187.011L428.185 180.464L424.692 181.22L418.782 179.322L419.133 176.502L413.893 176.032L414.365 171.23L415.742 168.83L413.828 167.134L413.625 165.472L411.173 164.784L411.592 160.318L410.635 157.716L407.563 155.047L401.7 156.423L398.996 153.418L395.286 151.791L395.553 150.128L394.111 147.677L397.806 145.226L396.443 142.96L402.775 139.233L403.247 141.13L406.002 139.502L406.606 135.405L409.695 131.896L417.89 128.958L421.838 124.644L425.164 123.167L425.885 121.404L430.958 120.783L431.898 131.41L433.997 137.436L434.736 137.302L440.413 145.293L442.427 145.847L446.223 144.051L447.398 144.487L447.349 142.053L451.161 138.209L453.595 139.484L453.395 140.206L455.495 139.484L459.493 150.749L459.239 152.78L461.944 158.153L470.744 160.688L477.427 166.714L479.795 170.626L493.449 175.763L495.953 177.543L502.686 184.123L508.045 193.139Z" fill="#05787E" stroke="white" stroke-width="0.75" stroke-linecap="round"/>
<path d="M463.07 42.1803L463.485 40.0349L462.503 39.5816L463.148 38.8866L462.358 37.4478L463.258 36.6437L461.77 37.2296L460.501 35.0304L458.806 36.3247L457.782 35.8161L456.603 38.8496L454.725 38.9755L454.906 37.1591L452.402 38.9554L446.069 36.2979L446.638 38.0153L443.093 39.0209L440.612 41.7858L438.832 42.0209L439.576 43.3672L438.824 44.4417L436.19 43.9347L434.449 46.3924L439.475 49.9279L442.01 48.1031L446.868 48.4456L449.502 46.4696L450.629 48.9996L453.114 49.013L454.572 47.3896L454.255 45.1098L455.049 46.7147L456.28 45.7142L457.444 46.886L459.391 44.9487L459.53 42.6303L462.268 43.0819L463.07 42.1803Z" fill="#05787E" stroke="white" stroke-width="0.75" stroke-linecap="round"/>
<path d="M490.445 61.8742L492.91 59.9721L493.221 55.9682L496.09 54.5228L497.425 52.4377L499.711 52.5922L501.026 51.0511L501.398 50.0421L500.139 48.3801L501.385 47.5609L501.637 45.37L500.498 43.1456L496.276 43.5922L495.816 42.6957L494.121 43.6056L484.626 43.8793L482.387 43.327L480.815 40.5788L479.501 40.6459L478.005 38.5693L470.086 37.379L469.28 39.0309L466.986 40.2296L463.479 40.0315L463.064 42.177L467.636 46.5905L470.256 44.1059L472.537 45.2878L471.801 46.4394L473.474 48.7746L471.677 49.7785L470.934 51.9039L472.732 53.5457L472.428 54.9039L470.033 55.5989L469.65 57.0326L470.751 58.7819L470.066 59.5961L468.556 61.1657L466.853 61.1406L467.658 62.4517L472.34 63.1803L474.703 67.6274L475.597 66.2709L478.178 66.5278L479.278 68.079L481.079 68.4517L481.665 70.1389L483.013 70.2194L485.144 68.1814L489.414 69.6755L488.668 67.3504L490.445 61.8742Z" fill="#05787E" stroke="white" stroke-width="0.75" stroke-linecap="round"/>
<path d="M507.778 24.8956L510.127 28.1725L510.243 30.4188L509.116 31.5167L507.932 30.6118L505.868 31.2162L505.619 32.3007L508.606 33.8855L506.491 36.5396L507.175 37.6493L503.515 41.7506L500.5 43.1456L496.278 43.5922L495.818 42.6957L494.123 43.6056L484.628 43.8793L482.389 43.327L480.817 40.5788L479.504 40.6459L478.007 38.5693L477.641 35.7254L480.019 35.1865L481.438 36.1804L481.161 34.0164L483.439 34.5419L482.142 33.0931L482.79 30.6739L484.54 31.0617L484.843 30.0461L486.428 29.9168L486.504 28.6074L488.778 26.6549L488.551 24.5749L497.686 24.036L500.794 24.7512L502.45 23.8329L507.778 24.8956Z" fill="#05787E" stroke="white" stroke-width="0.75" stroke-linecap="round"/>
<path d="M465.235 30.12L464.78 31.1423L465.885 30.7814L465.935 32.4938L462.109 33.7445L461.001 32.9336L461.656 34.1121L460.499 35.0287L458.804 36.3231L457.78 35.8144L456.601 38.848L454.723 38.9739L454.904 37.1574L452.4 38.9537L446.067 36.2962L445.84 33.867L446.865 31.1558L448.376 30.8637L448.835 29.2789L450.859 28.8844L453.935 29.0321L454.763 31.0483L456.715 31.9297L460.274 30.8855L460.537 28.7115L465.235 30.12Z" fill="#05787E" stroke="white" stroke-width="0.75" stroke-linecap="round"/>
<path d="M528.332 170.727L524.27 179.339L527.98 198.544L508.045 193.139L502.687 184.123L495.954 177.543L493.45 175.763L479.795 170.626L477.447 166.714H477.427L470.745 160.688L461.944 158.153L459.24 152.78L459.493 150.749L455.495 139.484L453.396 140.206L453.596 139.484L451.161 138.209L447.35 142.053L447.398 144.487L446.224 144.051L442.427 145.847L440.413 145.293L434.737 137.302L433.998 137.436L431.899 131.41L430.958 120.783L430.671 116.703L433.142 115.948L435.577 108.125L440.984 105.976L438.581 103.827L440.463 100.05L441.605 99.6133L441.621 97.0616L438.682 96.3565L438.128 94.4771L436.365 93.1332L431.863 96.9944L430.102 93.9054L418.714 87.0224L418.345 84.6721L420.563 84.2365L426.776 83.6984L427.883 87.6771L431.479 87.3917L435.642 86.0328L436.028 85.0918L440.546 88.2991L442.731 87.1743L445.418 82.8758L448.492 80.5927L449.464 81.0291L448.323 72.6184L452.674 71.4433L453.833 75.3557L455.008 75.1207L455.327 78.8131L459.994 77.6388L461.273 75.3381L461.088 73.3076L462.817 71.5944L464.26 74.4819L466.091 74.3988L466.612 76.5132L469.821 79.7877L477.73 86.183L477.613 89.1545L476.152 90.2129L476.874 93.4698L469.687 99.5294L471.585 104.784L474.674 103.542L473.834 106.127L472.91 106.245L474.088 107.839L473.733 112.825L476.086 113.379L476.321 116.149L478.687 115.344L485.254 116.972L486.446 124.107L485.961 127.532L489.033 130.872L488.512 134.364L495.735 140.374L494.996 141.533L496.558 143.446L499.732 143.9L500.387 146.401L504.334 147.057L505.292 148.281H503.276L500.975 150.749L498.723 150.967L498.053 151.84L498.808 152.999L509.842 157.75L511.658 160.234L517.132 161.275L517.787 162.87L521.078 162.333L522.305 164.382L529.021 166.061L528.15 167.537L528.332 170.727Z" fill="#05787E" stroke="white" stroke-width="0.75" stroke-linecap="round"/>
<path d="M474.705 67.6307L475.163 68.9654L473.245 70.117L474.169 70.7331L470.777 71.8831L472.221 74.0336L472.281 79.0129L467.732 72.0376L466.23 72.2726L466.912 73.5669L466.089 74.3979L464.258 74.4802L462.824 71.5994L461.091 73.3118L461.266 75.3364L460.001 77.6363L455.32 78.8131L455.01 75.1198L453.836 75.3616L452.67 71.4382L448.329 72.6251L449.464 81.0275L448.492 80.5927L445.418 82.8775L442.724 87.1819L440.553 88.2933L436.02 85.0885L435.635 86.0286L431.48 87.3917L427.888 87.6721L426.781 83.7051L427.973 80.4013L423.254 79.1623L422.671 76.8792L423.518 75.8383L427.256 76.2228L428.771 69.6638L430.535 67.8104L429.969 66.3398L433.302 66.464L433.835 61.8037L435.281 62.1965L438.374 60.3314L438.48 57.2374L436.223 56.7254L436.08 54.4271L434.89 54.093L435.939 50.8865L438.2 50.9587L439.471 49.9279L442.005 48.1031L446.864 48.4456L449.498 46.4696L450.625 48.9996L453.11 49.013L454.568 47.3896L454.25 45.1098L455.045 46.7147L456.276 45.7142L457.44 46.886L459.386 44.9487L459.526 42.6303L462.263 43.0819L463.069 42.1803L467.641 46.5939L470.261 44.1093L472.542 45.2911L471.806 46.4428L473.479 48.778L471.682 49.7819L470.939 51.9072L472.736 53.5491L472.432 54.9072L470.038 55.6022L469.655 57.0359L470.756 58.7852L470.071 59.5994L468.561 61.1691L466.858 61.1439L467.663 62.455L472.345 63.1836L474.705 67.6307Z" fill="#05787E" stroke="white" stroke-width="0.75" stroke-linecap="round"/>
<path d="M463.483 40.0357L466.989 40.2338L469.284 39.0351L470.09 37.3832L478.008 38.5735L477.642 35.7296L480.02 35.1907L481.44 36.1846L481.162 34.0206L483.44 34.5461L482.143 33.0973L482.792 30.6781L484.542 31.0659L484.844 30.0503L486.429 29.921L486.505 28.6116L488.779 26.6591L488.552 24.5791L483.405 23.6994L477.96 25.437L476.438 27.2484L469.972 30.5841L465.233 30.1225L464.778 31.1449L465.883 30.7839L465.933 32.4963L462.107 33.747L460.999 32.9361L461.654 34.1146L460.497 35.0312L461.766 37.2305L463.254 36.6446L462.354 37.4487L463.143 38.8874L462.498 39.5824L463.483 40.0357Z" fill="#05787E" stroke="white" stroke-width="0.75" stroke-linecap="round"/>
<path d="M407.011 40.4697L405.167 44.6112L407.552 48.9895L410.019 47.1462L410.503 45.2811L417.041 46.6342L422.01 45.0074L426.592 46.3756L434.447 46.3924L436.189 43.9347L438.822 44.4417L439.574 43.3673L438.83 42.0209L440.611 41.7858L443.091 39.0209L446.637 38.0153L446.067 36.2979L445.84 33.8687L437.127 38.6314L432.547 38.5659L431.74 36.8469L429.765 36.3768L418.445 39.7881L414.564 39.3281L407.011 40.4697Z" fill="#05787E" stroke="white" stroke-width="0.75" stroke-linecap="round"/>
<path d="M536.411 167.923L537.553 170.592L536.444 173.48L534.916 176.602L528.332 170.727L528.147 167.537L529.021 166.06L522.303 164.381L521.077 162.333L517.785 162.87L517.13 161.275L511.655 160.234L509.841 157.75L498.807 152.999L498.051 151.84L498.723 150.967L500.974 150.749L503.275 148.281H505.29L504.333 147.056L500.386 146.401L499.731 143.9L496.557 143.446L494.995 141.533L495.734 140.374L499.076 139.501L500.386 137.806L497.329 136.244L497.85 135.036L495.801 132.904L495.112 127.716L494.222 127.213L497.9 124.14L499.378 121.068L507.456 121.001L510.53 119.087L511.638 119.826L513.351 118.919L511.168 117.089L512.848 116.804L514.426 114.286L521.799 112.07C521.799 112.07 521.799 112.07 521.816 112.07C524.822 112.221 528.08 112.339 528.08 112.339L529.34 115.646L530.919 117.006L531.171 118.751L533.27 120.313L534.748 121.941V124.459L535.722 126.961L535.571 126.86L533.723 127.918L534.933 128.975L531.758 131.191L533.774 133.474L532.581 136.58L538.745 142.053L535.436 149.927L533.992 156.642L535.823 160.15L536.411 167.923Z" fill="#05787E" stroke="white" stroke-width="0.75" stroke-linecap="round"/>
<path d="M535.706 78.4272L531.239 83.4132L528.182 84.9241L526.973 83.1446L525.192 83.1111L523.799 84.6555L523.681 83.3461L522.069 85.8643L518.794 83.0271L520.171 90.4138L519.549 94.6779L518.004 97.28L517.114 96.961L515.132 98.942L515.452 99.9493L520.372 100.05L523.95 102.4L524.689 108.259L525.612 108.763L524.705 108.88L523.563 111.55L521.817 112.07C521.8 112.07 521.8 112.07 521.8 112.07L514.427 114.286L512.848 116.804L511.169 117.09L513.352 118.92L511.639 119.826L510.531 119.087L507.457 121.001L499.379 121.068L497.901 124.141L494.223 127.213L495.113 127.716L495.802 132.904L497.851 135.036L497.33 136.245L500.387 137.806L499.077 139.501L495.734 140.374L488.513 134.364L489.033 130.873L485.96 127.532L486.447 124.107L485.255 116.972L478.688 115.344L476.32 116.15L476.085 113.38L473.733 112.826L474.086 107.84L472.91 106.245L473.834 106.127L474.674 103.542L471.584 104.784L469.686 99.5296L476.874 93.4692L476.152 90.2123L477.613 89.1547L477.731 86.1832L469.82 79.7871L466.612 76.5134L466.092 74.3982L466.915 73.5588L466.226 72.2661L467.738 72.0311L472.272 79.0148L472.222 74.0288L470.778 71.88L474.17 70.7384L473.246 70.1172L475.161 68.9589L474.708 67.6326L475.598 66.2728L478.184 66.5246L479.276 68.0859L481.073 68.4552L481.661 70.134L483.021 70.218L485.154 68.1866L489.42 69.6808L488.664 67.3472L490.444 61.8744L491.401 63.7211L495.113 62.4452L499.748 64.0904L505.442 61.6394L506.886 66.3064L504.182 67.3472L503.023 70.8727L507.76 71.3595L507.155 69.6975L509.389 68.6231L508.734 70.453L509.842 71.7457L513.335 69.11L517.904 68.2202L520.12 71.0238L522.085 70.9399L522.388 72.988L524.756 72.1318L524.47 73.1726L526.939 74.9354L528.803 74.5325L529.626 75.3886L528.921 76.2952L529.845 77.655L535.706 78.4272Z" fill="#05787E" stroke="white" stroke-width="0.75" stroke-linecap="round"/>
<path d="M417.842 390.832L417.773 391.035L416.984 393.586L411.661 402.03L410.298 418.952L407.176 424.292L407.261 434.717L410.367 439.384L406.068 450.195L405.278 465.102L401.333 467.923L401.096 466.547L398.174 466.882L396.679 465.522L392.262 466.882L390.263 470.994L377.701 483.888L382.254 494.028L396.646 514.392L396.897 551.225L397.082 578.84V579.411L183.301 519.697L171.983 520.385L149.864 528.325L121.447 506.216L143.213 499.114L155.306 487.447L179.121 487.833L184.225 476.551L196.284 460.234L200.18 456.91L206.647 454.257L219.562 455.197L222.55 453.418L228.127 435.019L226.18 432.92L231.823 415.074L242.15 402.433L245.057 396.121L256.04 387.844L267.511 372.231L289.746 366.154L308.542 365.383L310.807 363.451L330.795 382.237L337.513 384.201L343.105 386.384H348.712L352.911 388.684L358.454 390.362H364.384L369.137 389.238L371.942 388.113L376.424 386.384L383.698 383.362L395.454 383.076L399.653 384.755L410.87 383.647L415.891 386.384L417.842 390.832Z" fill="#FFC73A" stroke="white" stroke-width="0.75" stroke-linecap="round"/>
<path d="M358.454 292.406L358.137 292.775L350.529 291.549L347.688 289.989H333.412L330.893 286.412H327.436L322.496 281.795H318.199L316.618 283.155L307.381 283.474L304.861 285.254L299.204 285.472L298.045 286.731L290.807 287.47L288.487 284.733L283.567 285.354L281.25 286.932H263.095L261.416 288.829L245.142 288.611L236.744 296.485H231.605L229.086 295.326L226.766 297.106L225.307 298.382H219.53L217.75 299.741H213.751V301.521H209.232L208.613 300.061L207.553 294.806L206.193 293.346L205.725 289.686L209.3 288.343L210.274 287.051L208.577 284.179L209.771 280.94L210.511 281.392L213.467 277.682L213.568 274.106L213.232 272.998L212.392 273.871L211.735 273.183L210.98 270.514L210.191 270.833L210.173 271.336L209.067 271.689L209.873 272.092L208.577 271.823L208.98 269.07L207.907 267.962L207.706 269.624L206.68 269.188L206.749 270.43L205.674 270.028L205.07 271.052L205.808 267.694L204.75 265.226L205.974 264.118L205.053 262.808L206.514 259.955L207.471 260.794L210.343 258.696L210.14 248.388L240.959 242.545L237.382 232.422L238.405 228.662L249.96 229.35L255.016 227.503L261.817 227.353L265.662 228.594L271.44 227.068L287.227 231.381L299.588 232.339L302.762 230.206L300.713 228.158L297.541 228.544L299.657 226.815L299.522 221.578L301.455 218.337L304.022 217.885L304.29 221.897L306.694 222.098L305.785 226.916L308.104 226.984L308.607 229.602L318.399 224.398L329.802 227.588L332.842 225.355L336.891 226.228L339.629 222.198L338.031 229.568L334.538 228.762L332.692 230.139L330.929 233.866L330.694 240.884L331.835 244.711L330.676 244.812V244.828L330.978 246.44L329.972 247.868L331.567 249.848L329.483 251.88L331.583 255.254L329.887 257.268L329.937 260.407L331.363 263.463L336.27 267.409L334.893 272.411L358.454 292.406Z" fill="#FFC73A" stroke="white" stroke-width="0.75" stroke-linecap="round"/>
<path d="M427.026 228.41L428.237 242.864L420.427 251.511L385.024 273.636L358.454 292.406L334.893 272.411L336.27 267.409L331.364 263.463L329.937 260.407L329.887 257.268L331.583 255.254L329.483 251.88L331.567 249.848L329.972 247.868L330.978 246.44L330.676 244.828V244.812L331.835 244.711L330.694 240.884L330.929 233.866L332.692 230.139L334.539 228.762L338.031 229.568L339.629 222.198L344.651 212.529L343.928 208.516L344.599 205.948L342.953 204.101L343.408 202.204L342.012 201.415L342.483 198.326L345.103 196.882L346.093 194.231L344.97 193.491L346.465 191.829L345.052 187.716L349.956 165.724L348.578 160.722L352.14 158.824L350.865 158.639L349.637 155.634L348.377 155.164L348.713 150.716L346.95 149.456L343.928 150.816L343.643 146.67L346.162 141.516L347.738 140.357L345.674 131.108L349.588 132.4L353.114 135.96L356.759 136.396L361.629 133.022L364.533 136.866L372.225 131.611L377.031 132.837L383.698 134.23L382.556 142.422H382.573L391.876 141.936L392.23 145.024L394.111 147.677L395.553 150.128L395.287 151.791L398.997 153.418L401.701 156.423L407.563 155.047L410.636 157.716L411.593 160.318L411.173 164.784L413.626 165.472L413.828 167.134L415.743 168.83L414.366 171.23L413.894 176.032L419.134 176.502L418.783 179.322L424.692 181.22L428.185 180.464L427.834 187.011L421.132 187.246L422.206 188.724L421.956 191.293L427.179 202.321L428.136 212.697L429.445 217.968L429.463 217.985L431.361 225.59L427.026 228.41Z" fill="#FFC73A" stroke="white" stroke-width="0.75" stroke-linecap="round"/>
<path d="M228.127 435.019L222.551 453.418L219.563 455.197L206.648 454.257L200.18 456.91L196.284 460.233L184.225 476.551L179.121 487.833L155.306 487.447L143.213 499.114L121.447 506.216L10.6699 421.74L16.0283 361.353L24.1544 358.465L35.527 349.988L43.9411 345.942L51.0621 340.906L56.2668 339.462L57.9463 336.507L66.2773 336.742L75.7495 331.286L89.5052 334.878L92.7466 332.814L99.0094 332.998L102.116 331.303L104.232 332.093L112.73 331.253L116.509 332.343L126.486 330.733L129.274 332.125L128.132 334.962L130.451 334.191L134.899 337.162L137.571 333.619L145.933 340.637L160.057 341.225L169.817 346.547L179.522 382.103L190.912 403.391L191.044 416.217L200.854 428.136L205.893 432.199L228.127 435.019Z" fill="#FFC73A" stroke="white" stroke-width="0.75" stroke-linecap="round"/>
<path d="M439.575 748.115L435.812 749.34L432.974 744.169L428.842 740.308L426.222 739.703L423.065 742.994L420.918 741.063L419.574 741.719L417.492 740.93L415.778 741.87L414.116 739.301L411.142 739.368L405.766 734.465L404.257 727.197L393.59 723.436L390.937 720.045L385.698 720.498L384.927 718.517L386.304 708.848L385.346 703.878L338.757 672.652L338.102 669.329L184.565 555.876L149.481 528.596H149.463L149.396 528.545L171.515 520.606L182.833 519.917L396.614 579.632L395.555 674.449L402.544 673.325L409.965 674.114L410.167 675.054L412.52 686.285L422.763 696.677L426.946 705.171L429.768 714.991L429.716 725.282L433.494 730.756L438.751 743.263L439.575 748.115Z" fill="#FFC73A" stroke="white" stroke-width="0.75" stroke-linecap="round"/>
<path d="M358.137 292.775L343.977 308.673L337.311 320.273L320.198 332.31L317.626 341.124L319.339 352.539L318.316 357.106L310.808 363.451L308.542 365.383L289.746 366.154L267.512 372.231L256.04 387.844L245.057 396.121L242.15 402.433L231.823 415.074L226.18 432.92L228.127 435.019L205.893 432.199L200.854 428.136L191.044 416.217L190.912 403.391L179.522 382.103L169.817 346.547L160.057 341.225L145.933 340.637L137.571 333.619L144.64 324.571L144.692 322.271L146.388 319.753L159.99 310.084L172.555 304.644L183.721 294.621L190.305 292.523L201.609 291.213L205.725 289.686L206.193 293.346L207.553 294.806L208.613 300.061L209.232 301.521H213.751V299.741H217.75L219.53 298.382H225.307L226.766 297.106L229.086 295.326L231.605 296.485H236.745L245.142 288.611L261.416 288.829L263.095 286.932H281.251L283.567 285.354L288.487 284.733L290.807 287.47L298.045 286.731L299.204 285.472L304.861 285.254L307.381 283.474L316.618 283.155L318.199 281.795H322.496L327.436 286.412H330.893L333.412 289.989H347.688L350.529 291.549L358.137 292.775Z" fill="#FFC73A" stroke="white" stroke-width="0.75" stroke-linecap="round"/>
<path d="M422.023 361.706L420.143 369.916L418.83 387.693L417.842 390.832L415.891 386.384L410.871 383.647L399.653 384.755L395.455 383.076L383.698 383.362L376.424 386.384L371.942 388.113L369.137 389.238L364.384 390.362H358.454L352.911 388.684L348.712 386.384H343.106L337.513 384.201L330.795 382.237L310.808 363.451L318.316 357.106L319.339 352.539L317.626 341.124L320.198 332.31L337.311 320.273L343.977 308.673L358.137 292.775L358.454 292.406L385.024 273.636L420.427 251.511L419.286 299.557L414.851 321.851L422.023 361.706Z" fill="#FFC73A" stroke="white" stroke-width="0.75" stroke-linecap="round"/>
<path d="M748.361 631.387L651.69 701.744C649.389 700.099 647.206 698.488 646.736 697.934C645.694 696.658 636.877 689.54 636.877 689.54H632.46L630.579 691.218L626.8 690.581L611.467 679.467H601.188L599.089 683.664L597.191 689.943L594.672 696.037L592.153 701.073V708.409H571.159L566.759 703.591L550.603 703.809L541.769 698.135L534.849 697.715L531.289 696.456L527.711 698.555L526.25 704.649L527.493 708.409L526.25 711.767L524.352 719.54L517.013 721L508.397 729.612H501.058L498.74 727.094L499.782 718.918L500.84 716.4V711.767L498.74 709.249V705.488L495.382 701.291L489.084 699.394L486.144 696.658L478.167 696.255L473.75 690.161L468.711 689.741L466.411 682.187L463.472 676.512L460.952 670.435L457.593 669.394L455.276 673.155L428.841 672.953L427.413 674.582L410.635 674.834L410.434 673.893L403.011 673.104L396.024 674.229L397.082 579.411V578.841L396.897 551.224L412.987 538.331L414.666 532.456L417.488 518.824L418.227 515.248L419.486 509.171L422.224 506.334L425.482 508.953L431.142 507.912L434.719 510.95L441.538 511.991L446.257 516.927L463.472 516.306L468.829 510.01L473.229 509.91V517.246L474.287 519.445H479.527L481.308 518.186L484.146 519.445L493.803 510.01L488.664 501.297L488.983 497.52L491.603 495.321L490.343 488.287L488.664 486.608L485.825 482.092L487.723 480.632L492.342 485.03L496.641 484.409L510.077 469.921L520.993 469.3C520.993 469.3 522.992 470.978 523.613 471.297C524.252 471.6 525.814 471.297 525.814 471.297L527.812 467.621L531.289 466.782L539.568 458.388V454.291L542.205 452.193L547.445 444.84L545.564 440.122V436.563L549.125 432.467L551.224 429.11L562.88 429.429L563.182 430.855L563.249 445.478L584.545 464.297L585.25 467.52L580.514 471.465L578.734 476.602L580.716 479.205L584.494 480.212L584.73 481.907L587.299 483.804L597.258 510.9L605.757 521.208L608.494 528.208L614.691 538.684L619.444 542.344L626.968 542.579L636.357 556.059L635.953 562.405L637.7 580.771L647.072 601.521L643.763 605.281L654.243 612.651L683.096 605.668L704.745 589.518L728.089 588.141L730.877 589.853L734.589 589.769L747.151 596.871L748.361 631.387Z" fill="#FB8500" stroke="white" stroke-width="0.75" stroke-linecap="round"/>
<path d="M695.709 289.45L589.079 317.083L584.377 315.589L557.707 330.547L485.288 386.384L485.54 385.695L456.099 361.89L469.921 355.796L481.274 332.142L483.927 330.312L501.545 268.684L506.869 255.002L507.407 243.049L508.162 226.446L519.516 214.174L527.98 198.544L524.268 179.339L528.333 170.727L534.916 176.602L536.445 173.48L551.224 173.211V175.092L553.458 178.13C553.458 178.13 552.971 187.582 553.458 187.431C553.962 187.296 558.227 190.939 558.227 190.939L559.84 194.364L561.166 195.825L565.785 197.302L566.121 207.224L576.903 221.56L580.329 221.913L592.505 226.261L597.141 228.124L601.39 230.021L604.161 231.381L609.854 232.053L676.58 224.901L695.709 289.45Z" fill="#FB8500" stroke="white" stroke-width="0.75" stroke-linecap="round"/>
<path d="M732.372 518.89L718.113 518.085L713.713 519.982L707.415 519.764L701.537 521.225L693.559 520.821L688.521 515.147L685.615 508.013L680.124 501.079H674.044L666.688 506.334L664.807 509.909H661.851L658.71 511.152L653.454 514.308L651.573 521.863L641.076 522.064L639.615 523.122H624.7L613.364 517.246L607.267 515.567L601.389 513.67L597.258 510.9L587.299 483.805L584.73 481.907L584.494 480.211L580.715 479.205L578.733 476.602L580.513 471.465L585.25 467.519L584.544 464.297L563.248 445.478L563.181 430.855L562.879 429.429L556.917 401.342L559.889 387.308L557.707 330.548L584.376 315.59L589.079 317.083L695.709 289.451L699.757 303.318L694.55 305.483L693.778 307.296L694.937 311.678L699.941 317.436L710.286 337.229L714.872 353.967L716.803 365.365L715.544 385.779L721.673 403.356L720.767 411.448L718.819 415.578L717.004 416.199L719.339 416.586L718.936 419.087L717.173 421.001L716.367 425.735L716.584 429.899L720.347 442.641L723.185 446.384L723.352 455.617L721.791 461.174L708.675 467.822L706.861 473.597L704.812 476.2L731.699 510.328L732.372 518.89Z" fill="#FB8500" stroke="white" stroke-width="0.75" stroke-linecap="round"/>
<path d="M676.58 224.901L609.854 232.053L600.617 221.376L587.55 201.935L573.947 163.374L571.914 150.514L571.377 151.857L570.504 150.112L569.227 150.296L564.642 153.889L563.719 152.126L565.147 145.814L563.752 143.161L562.492 140.374L559.822 137.839L559.336 131.528L559.453 131.544L568.371 129.361L577.994 132.787L580.43 135.136L583.201 134.164V134.146L586.106 130.469L586.19 134.096L594.907 139.367L597.51 139.955L597.661 132.266L605.084 131.594L612.239 134.096L626.111 134.784L626.279 136.06L623.592 138.175L620.77 137.05L619.26 140.727L616.404 142.741L617.63 144.722L616.672 149.49L617.73 152.495L616.959 154.174L619.327 155.953L619.779 160.553L625.776 169.921L629.117 180.146L631.788 180.162L639.632 183.402L639.715 185.55L647.71 194.884L649.708 208.583L676.58 224.901Z" fill="#FB8500" stroke="white" stroke-width="0.75" stroke-linecap="round"/>
<path d="M527.98 198.544L519.515 214.174L508.163 226.446L507.406 243.049H502.101L498.456 240.799L494.222 237.442H489.639L485.306 234.504H473.684L471.416 232.556L463.893 232.053L461.373 231.146H455.21L453.11 229.619L444.713 227.235L437.021 223.877L429.463 217.985L429.445 217.968L428.137 212.697L427.179 202.321L445.366 200.727L454.387 198.024L468.746 201.449L468.19 196.581L462.045 192.836L475.229 192.232L476.808 190.99L477.547 191.527L478.251 190.268L478.754 191.125L480.285 190.469L484.786 192.333L486.078 191.628L508.045 193.139L527.98 198.544Z" fill="#FB8500" stroke="white" stroke-width="0.75" stroke-linecap="round"/>
<path d="M565.499 172.943L551.223 173.211L536.445 173.48L537.553 170.592L536.41 167.923L535.823 160.15L533.992 156.642L535.436 149.927L538.745 142.053L532.581 136.58L533.775 133.474L531.758 131.191L534.933 128.975L533.724 127.918L535.571 126.86L535.722 126.961L539.417 129.412L559.336 131.528L559.822 137.839L562.493 140.374L563.752 143.161L565.147 145.814L563.719 152.126L562.61 153.15L562.527 155.5L564.441 159.865L564.508 164.146L562.897 165.943L564.878 168.41L565.499 172.943Z" fill="#FB8500" stroke="white" stroke-width="0.75" stroke-linecap="round"/>
<path d="M507.406 243.049L506.87 255.003L501.545 268.684L483.926 330.313L481.273 332.143L469.921 355.796L456.098 361.891L437.388 363.519L420.143 369.916L422.023 361.706L414.851 321.851L419.286 299.557L420.426 251.511L428.237 242.864L427.026 228.41L431.361 225.59L429.463 217.985L437.02 223.877L444.712 227.235L453.11 229.619L455.209 231.146H461.373L463.892 232.053L471.415 232.556L473.683 234.504H485.305L489.638 237.442H494.222L498.456 240.799L502.1 243.049H507.406Z" fill="#FB8500" stroke="white" stroke-width="0.75" stroke-linecap="round"/>
<path d="M609.854 232.053L604.16 231.381L601.389 230.021L597.14 228.124L592.505 226.261L580.328 221.913L576.902 221.56L566.12 207.224L565.784 197.302L561.166 195.825L559.839 194.364L558.227 190.939C558.227 190.939 553.961 187.296 553.457 187.431C552.97 187.582 553.457 178.13 553.457 178.13L551.223 175.092V173.211L565.499 172.943L564.877 168.41L562.895 165.942L564.508 164.146L564.441 159.865L562.526 155.5L562.61 153.15L563.718 152.126L564.642 153.888L569.227 150.296L570.503 150.111L571.377 151.857L571.914 150.514L573.946 163.374L587.55 201.935L600.616 221.376L609.854 232.053Z" fill="#FB8500" stroke="white" stroke-width="0.75" stroke-linecap="round"/>
<path d="M814.331 582.516L748.361 631.387L747.152 596.871L734.588 589.769L730.878 589.853L728.09 588.14L704.745 589.518L683.096 605.668L654.243 612.651L643.763 605.281L647.072 601.52L637.7 580.771L635.954 562.405L636.356 556.059L626.968 542.579L619.444 542.343L614.692 538.684L608.493 528.208L605.756 521.208L597.258 510.9L601.389 513.67L607.267 515.567L613.364 517.246L624.7 523.122H639.615L641.076 522.064L651.573 521.863L653.454 514.308L658.711 511.152L661.851 509.909H664.807L666.688 506.334L674.044 501.079H680.124L685.615 508.013L688.521 515.147L693.56 520.821L701.537 521.225L707.415 519.764L713.713 519.981L718.114 518.085L732.372 518.89L733.01 527.217L741.005 540.145L746.833 544.627L754.239 544.223L756.825 542.326L760.403 542.092L762.972 544.593L765.139 541.874L768.011 542.276L770.177 543.15L774.443 547.397L777.819 548.505L789.709 555.841L796.612 552.516L814.331 582.516Z" fill="#FB8500" stroke="white" stroke-width="0.75" stroke-linecap="round"/>
<path d="M562.879 430.268L551.223 429.949L549.124 433.306L545.564 437.403V440.962L547.445 445.679L542.205 453.032L539.568 455.131V459.227L531.288 467.621L527.812 468.46L525.813 472.137C525.813 472.137 524.251 472.439 523.613 472.137C522.991 471.818 520.993 470.139 520.993 470.139L510.076 470.76L496.64 485.248L492.341 485.869L487.722 481.471L485.825 482.931L488.663 487.447L490.342 489.126L491.602 496.16L488.982 498.359L488.663 502.137L493.802 510.85L484.145 520.284L481.307 519.025L479.527 520.284H474.287L473.229 518.085V510.749L468.828 510.85L463.471 517.145L446.256 517.766L441.537 512.831L434.718 511.79L431.141 508.751L425.481 509.792L422.223 507.173L419.485 510.01L418.226 516.087L417.487 519.663L414.665 533.295L412.986 539.171L396.897 552.064L396.645 515.231L382.252 494.868L377.7 484.728L390.263 471.835L392.261 467.722L396.678 466.362L398.173 467.722L401.095 467.386L401.33 468.762L405.277 465.942L406.066 451.034L410.366 440.223L407.259 435.556L407.175 425.131L410.299 419.792L411.659 402.87L416.983 394.426L417.772 391.874L417.84 391.673L418.831 388.533L420.14 370.755L437.389 364.359L456.098 362.73L485.539 386.535L485.287 387.224L557.706 331.387L559.889 388.147L556.917 402.182L562.879 430.268Z" fill="#FB8500" stroke="white" stroke-width="0.75" stroke-linecap="round"/>
<path d="M651.69 701.745L640.32 710.021L576.399 773.362L474.774 796.479L466.192 789.914L465.336 787.967L468.846 783.166L469.467 780.295L471.936 777.676L470.391 774.067L470.996 772.421L469.366 769.803L470.273 766.881L469.366 765.354L470.055 759.126L459.071 753.821L448.474 751.588L443.301 751.621L438.766 749.221L436.281 749.12L440.043 747.894L439.22 743.043L433.963 730.536L430.184 725.063L430.235 714.772L427.413 704.951L423.231 696.456L412.987 686.065L410.635 674.834L427.413 674.582L428.841 672.953L455.276 673.155L457.593 669.394L460.952 670.435L463.471 676.512L466.411 682.187L468.711 689.741L473.75 690.161L478.167 696.255L486.144 696.658L489.083 699.394L495.381 701.291L498.74 705.488V709.249L500.84 711.767V716.4L499.782 718.919L498.74 727.094L501.058 729.612H508.397L517.013 721L524.352 719.54L526.25 711.767L527.493 708.409L526.25 704.649L527.711 698.555L531.289 696.456L534.849 697.715L541.768 698.135L550.603 703.809L566.759 703.591L571.159 708.409H592.153V701.073L594.672 696.037L597.191 689.943L599.089 683.664L601.188 679.467H611.467L626.8 690.581L630.579 691.219L632.46 689.54H636.877C636.877 689.54 645.694 696.658 646.736 697.934C647.206 698.488 649.389 700.099 651.69 701.745Z" fill="#FB8500" stroke="white" stroke-width="0.75" stroke-linecap="round"/>
</svg>
