<svg width="46" height="51" viewBox="0 0 46 51" fill="none" xmlns="http://www.w3.org/2000/svg">
<path d="M14.4136 38.9937L20.2369 44.0937C20.9883 44.9437 22.679 45.3687 23.8061 45.3687H30.9444C33.1985 45.3687 35.6406 43.4562 36.2041 40.9062L40.7125 25.3937C41.6518 22.4187 39.9611 19.8687 37.1434 19.8687H29.6294C28.5023 19.8687 27.5631 18.8062 27.7509 17.3187L28.6902 10.5187C29.0659 8.60624 27.9388 6.48124 26.2481 5.84374C24.7453 5.20624 22.8668 6.05624 22.1154 7.33124L14.4136 20.2937" stroke="#292D32" stroke-width="1.5" stroke-miterlimit="10"/>
<path d="M4.83301 38.9937V18.1687C4.83301 15.1937 5.96011 14.1312 8.59 14.1312H10.4685C13.0984 14.1312 14.2255 15.1937 14.2255 18.1687V38.9937C14.2255 41.9687 13.0984 43.0312 10.4685 43.0312H8.59C5.96011 43.0312 4.83301 41.9687 4.83301 38.9937Z" stroke="#292D32" stroke-width="1.5" stroke-linecap="round" stroke-linejoin="round"/>
<rect x="0.362305" width="45.0839" height="51" stroke="black"/>
</svg>
