<svg width="101" height="122" viewBox="0 0 101 122" fill="none" xmlns="http://www.w3.org/2000/svg">
<path d="M90.8708 112.115L68.8148 111.905C67.4914 111.905 66.3151 110.792 65.8529 109.133C64.7186 105.099 63.8994 95.8779 63.8994 95.8779C73.5831 95.5839 80.4729 96.088 91.5009 96.13C94.8409 96.13 97.5716 99.764 97.6136 104.175C97.2565 108.565 94.2107 112.136 90.8708 112.094V112.115Z" fill="url(#paint0_linear_194_2857)"/>
<path d="M84.0229 49.2663L47.1999 49.5393C46.2546 49.2873 45.3094 49.0142 44.3641 48.7621C44.3641 48.7621 40.6251 46.7876 39.9319 41.6202C39.9319 41.6202 39.9319 41.6202 39.9319 41.5782C39.9319 41.4731 39.8899 41.1791 39.8899 40.78C39.9319 36.2847 43.2928 32.6297 47.473 32.3777C47.767 32.3777 47.9981 32.3777 48.0401 32.3777C50.6658 32.4617 60.8956 32.4197 86.2705 32.0626C87.951 32.0416 89.9045 32.5457 92.0891 33.743C97.4456 36.6628 99.4411 42.3764 99.8613 43.5737C101.08 47.0397 101.038 50.0015 100.975 51.808C100.933 53.5724 100.68 56.0931 99.3991 60.0842C98.3488 63.3611 97.2145 67.0161 93.7696 72.2045C88.8753 79.5775 84.0019 86.9085 79.1076 94.2605C78.7505 94.7857 78.4144 95.3318 78.0573 95.857C76.1878 98.6928 74.2973 101.402 72.4488 104.532C71.3145 106.423 70.0121 108.187 68.7098 109.973C68.5207 110.246 68.3106 110.561 68.1216 110.855C67.9536 111.128 67.7855 111.275 67.5965 111.359C67.5965 111.359 67.5124 111.38 67.4704 111.38C67.4284 111.38 67.4074 111.38 67.3654 111.38C67.1343 111.38 66.8823 111.17 66.5882 110.792C66.021 110.036 65.7059 109.196 65.2858 108.397C63.2903 104.616 61.2737 100.877 59.5723 96.9703C59.4672 96.7182 59.4462 96.4872 59.4462 96.2561C59.4882 95.3318 60.1394 94.6807 60.2865 94.5336C61.1057 93.6724 65.4119 87.1186 72.0497 76.8048C79.8428 65.7978 85.1572 57.4165 86.1235 55.1269C86.7747 53.5935 88.056 52.2071 86.5226 50.3376C86.4806 50.2956 86.4596 50.2325 86.4596 50.2325L83.9809 49.2663H84.0229Z" fill="url(#paint1_linear_194_2857)"/>
<path opacity="0.16" d="M79.7378 46.1574C79.8008 47.1237 80.0318 51.808 78.4984 57.6896C78.3514 58.1937 78.2253 58.6978 78.0783 59.181C76.1668 65.4197 73.0789 69.6628 71.0204 72.6877C60.1394 88.463 49.2794 104.301 38.4405 120.098C38.2304 120.392 38.0414 120.665 37.8103 120.98C37.2222 121.883 36.655 121.925 35.9618 120.98C35.3316 120.119 34.9955 119.11 34.5334 118.165C32.3488 113.712 30.0802 109.28 28.2737 104.637C27.8326 103.503 28.6728 102.537 29.282 101.655C34.3444 94.2605 39.4278 86.8875 44.4901 79.5145C48.8383 73.1498 53.3125 66.8481 57.5557 60.4203C58.1649 59.5171 58.774 58.5928 59.3622 57.6896C60.3285 56.1982 61.5258 53.1103 61.6098 49.1402C61.6518 47.0607 61.3367 45.1912 60.9376 43.7418C60.7276 42.9645 60.4965 42.2714 60.2654 41.7252C57.8288 37.251 54.846 34.7723 52.9765 33.491C52.1782 32.9238 51.191 32.2516 49.6996 31.6425C45.0573 29.7309 40.7511 30.6132 38.9866 30.9913C37.9363 31.2223 36.2349 31.6004 34.2603 32.6717C31.6136 34.1421 29.9332 36.0327 29.0089 37.209C26.7823 40.0868 24.5767 42.9225 22.3501 45.7793C22.3081 45.9474 22.2661 46.1994 22.2241 46.5145C22.2661 46.4725 22.3081 46.4095 22.3501 46.3675C29.24 61.9747 34.2183 73.4439 34.7015 74.7882C34.7855 75.0403 34.9955 75.6285 34.9535 76.3847C34.8695 77.3089 34.4494 77.9601 34.2603 78.2332C31.0045 82.9805 27.7276 87.6858 24.4927 92.433C24.4507 92.5801 24.1776 93.4413 23.4634 93.6514C23.4634 93.6514 22.5181 93.9455 21.3838 92.6221C21.1528 92.328 20.9847 91.9919 20.9847 91.9919C20.9847 91.9499 20.9637 91.9289 20.9637 91.9289C20.8587 91.6768 17.4978 84.2828 9.38956 66.3859C9.22152 66.0498 9.07448 65.7138 8.90643 65.3567C8.90643 65.3777 8.86442 65.4197 8.84341 65.4407C8.75939 65.2726 8.65436 65.1046 8.57034 64.9155C5.73456 58.1097 0 44.54 0 44.54C0 44.54 6.91089 34.3312 12.9395 26.454C14.9351 23.8493 17.6448 20.3834 22.3921 17.3376C22.6652 17.1485 22.9593 16.9595 23.2533 16.7704C26.2362 14.9639 31.7397 12.3172 38.9656 11.603C42.3896 11.2249 45.8555 11.3929 49.2794 12.1281C50.0146 12.2962 51.5691 12.6113 53.5016 13.2204C59.1731 15.0059 62.9962 17.6736 64.0675 18.4299C65.1808 19.2281 68.3526 21.6017 71.5245 25.6138C73.268 27.8404 77.8472 33.806 79.3176 42.5864C79.5277 43.6997 79.6747 44.8971 79.7378 46.1154V46.1574Z" fill="#312783"/>
<path d="M82.6155 35.2554C82.6785 36.2217 82.9095 40.906 81.3761 46.7876C81.2291 47.2917 81.1031 47.7959 80.956 48.279C79.0445 54.5177 75.9566 58.7608 73.8981 61.7857C63.0171 77.561 52.1571 93.3783 41.3182 109.196C41.1081 109.49 40.9191 109.763 40.688 110.078C40.0999 110.981 39.5327 111.023 38.8395 110.078C38.2093 109.217 37.8732 108.208 37.4111 107.263C35.2265 102.81 32.9579 98.3777 31.1514 93.7354C30.7103 92.6011 31.5505 91.6348 32.1597 90.7526C37.2221 83.3586 42.3055 75.9855 47.3678 68.6125C51.716 62.2478 56.1903 55.9461 60.4334 49.5183C61.0426 48.6151 61.6517 47.6908 62.2399 46.7876C63.2062 45.2962 64.4035 42.2083 64.4875 38.2382C64.5295 36.1587 64.2144 34.2892 63.8153 32.8398C63.6053 32.0626 63.3742 31.3694 63.1431 30.8232C60.7065 26.349 57.7237 23.8703 55.8542 22.589C55.0559 22.0218 54.0687 21.3496 52.5773 20.7405C47.935 18.8289 43.6288 19.7112 41.8643 20.0893C40.8141 20.3204 39.1126 20.6985 37.1381 21.7698C34.4913 23.2402 32.8109 25.1307 31.8866 26.307C29.66 29.1848 27.4544 32.0206 25.2278 34.8773C25.1858 35.1084 25.1228 35.4865 25.0598 35.9696C24.2195 37.1039 23.3583 38.2803 22.5181 39.4356C18.779 44.498 15.1871 49.5603 11.7211 54.5807C11.6371 54.4127 11.5321 54.2446 11.448 54.0556C8.57026 47.2707 2.83569 33.701 2.83569 33.701C2.83569 33.701 9.74658 23.4922 15.7752 15.6151C17.7708 13.0104 20.4805 9.54442 25.2278 6.49859C25.5009 6.30953 25.795 6.12048 26.089 5.93143C29.1139 4.10393 34.6174 1.45721 41.8223 0.72201C45.2463 0.343907 48.7122 0.511953 52.1361 1.24715C52.8713 1.4152 54.4258 1.73029 56.3583 2.33945C62.0298 4.12494 65.8529 6.79267 66.9242 7.54887C68.0375 8.34709 71.2094 10.7207 74.3812 14.7328C76.1247 16.9594 80.7039 22.9251 82.1743 31.7055C82.3844 32.8188 82.5314 34.0161 82.5945 35.2344L82.6155 35.2554Z" fill="#FDC40E"/>
<path d="M37.5371 65.0625C37.4531 65.9867 37.033 66.6379 36.8439 66.911C33.588 71.6583 30.3112 76.3636 27.0763 81.1109C27.0343 81.2579 26.7612 82.1191 26.047 82.3292C26.047 82.3292 25.1017 82.6233 23.9674 81.2999C23.7364 81.0058 23.5683 80.6698 23.5683 80.6698C23.5683 80.6277 23.5473 80.6067 23.5473 80.6067C23.4423 80.3547 20.0814 72.9607 11.9732 55.0638C11.7841 54.6857 11.6161 54.2655 11.427 53.8454C14.8929 48.8251 18.4849 43.7627 22.2239 38.7003C23.0852 37.545 23.9464 36.3897 24.7656 35.2554C24.7656 35.2554 24.8917 35.0873 24.9337 35.0033C31.8236 50.6106 36.8019 62.0797 37.2851 63.4241C37.3691 63.6761 37.5791 64.2643 37.5371 65.0205V65.0625Z" fill="url(#paint2_linear_194_2857)"/>
<defs>
<linearGradient id="paint0_linear_194_2857" x1="63.6914" y1="102.774" x2="97.9197" y2="104.957" gradientUnits="userSpaceOnUse">
<stop stop-color="#5A3E91"/>
<stop offset="1" stop-color="#873B8E"/>
</linearGradient>
<linearGradient id="paint1_linear_194_2857" x1="41.7771" y1="72.8659" x2="102.166" y2="69.257" gradientUnits="userSpaceOnUse">
<stop stop-color="#68BB87"/>
<stop offset="1" stop-color="#2AA3DD"/>
</linearGradient>
<linearGradient id="paint2_linear_194_2857" x1="15.8467" y1="38.9786" x2="33.2754" y2="79.2028" gradientUnits="userSpaceOnUse">
<stop stop-color="#E61C51"/>
<stop offset="1" stop-color="#EE7627"/>
</linearGradient>
</defs>
</svg>
