<svg width="208" height="236" viewBox="0 0 208 236" fill="none" xmlns="http://www.w3.org/2000/svg">
<g filter="url(#filter0_i_33_89)">
<path d="M73.3225 136.482C73.1448 138.437 72.256 139.814 71.8561 140.392C64.9682 150.432 58.0359 160.384 51.1924 170.425C51.1036 170.736 50.5259 172.557 49.015 173.002C49.015 173.002 47.0153 173.624 44.6156 170.825C44.1268 170.203 43.7713 169.492 43.7713 169.492C43.7713 169.403 43.7269 169.358 43.7269 169.358C43.5047 168.825 36.3946 153.187 19.2416 115.334C18.8416 114.535 18.4861 113.646 18.0862 112.758C25.4184 102.139 33.0173 91.4322 40.9273 80.7252C42.7492 78.2816 44.5712 75.8381 46.3043 73.439C46.3043 73.439 46.5709 73.0836 46.6598 72.9059C61.2354 105.916 71.7672 130.173 72.7893 133.017C72.967 133.55 73.4114 134.794 73.3225 136.393V136.482Z" fill="url(#paint0_linear_33_89)"/>
</g>
<g filter="url(#filter1_i_33_89)">
<path d="M186.15 236L139.49 235.556C136.691 235.556 134.202 233.201 133.225 229.691C130.825 221.161 129.092 201.657 129.092 201.657C149.578 201.035 164.154 202.102 187.483 202.19C194.549 202.19 200.326 209.877 200.415 219.206C199.659 228.492 193.216 236.044 186.15 235.956V236Z" fill="url(#paint1_linear_33_89)"/>
<path d="M171.708 103.072L93.8083 103.65C91.8086 103.117 89.8089 102.539 87.8092 102.006C87.8092 102.006 79.8992 97.8298 78.4327 86.9006C78.4327 86.9006 78.4327 86.9006 78.4327 86.8118C78.4327 86.5896 78.3439 85.9676 78.3439 85.1235C78.4327 75.616 85.5428 67.8856 94.386 67.3524C95.0081 67.3524 95.4969 67.3524 95.5858 67.3524C101.141 67.5301 122.782 67.4413 176.463 66.686C180.018 66.6416 184.151 67.7079 188.772 70.2402C200.104 76.4157 204.325 88.5 205.214 91.0324C207.792 98.363 207.703 104.627 207.569 108.448C207.48 112.18 206.947 117.511 204.237 125.953C202.015 132.883 199.615 140.614 192.327 151.587C181.973 167.181 171.664 182.687 161.309 198.236C160.554 199.347 159.843 200.502 159.088 201.613C155.133 207.611 151.133 213.342 147.223 219.962C144.823 223.96 142.068 227.692 139.313 231.468C138.913 232.046 138.468 232.712 138.068 233.334C137.713 233.912 137.357 234.223 136.957 234.401C136.957 234.401 136.78 234.445 136.691 234.445C136.602 234.445 136.558 234.445 136.469 234.445C135.98 234.445 135.447 234.001 134.824 233.201C133.625 231.602 132.958 229.825 132.069 228.136C127.848 220.139 123.582 212.231 119.982 203.968C119.76 203.435 119.716 202.946 119.716 202.457C119.804 200.502 121.182 199.125 121.493 198.814C123.226 196.992 132.336 183.131 146.378 161.317C162.865 138.037 174.108 120.31 176.152 115.468C177.529 112.224 180.24 109.292 176.996 105.338C176.907 105.249 176.863 105.116 176.863 105.116L171.619 103.072H171.708Z" fill="url(#paint2_linear_33_89)"/>
</g>
<g filter="url(#filter2_i_33_89)">
<path d="M168.686 73.4526C168.82 75.4962 169.308 85.4036 166.065 97.8434C165.753 98.9096 165.487 99.9759 165.176 100.998C161.132 114.193 154.6 123.167 150.245 129.565C127.226 162.93 104.251 196.384 81.3214 229.838C80.877 230.46 80.4771 231.038 79.9883 231.704C78.744 233.614 77.5442 233.703 76.0777 231.704C74.7446 229.883 74.0336 227.75 73.0559 225.751C68.4344 216.332 63.6351 206.958 59.8134 197.139C58.8802 194.74 60.6578 192.697 61.9465 190.831C72.656 175.192 83.41 159.598 94.1195 144.004C103.318 130.542 112.783 117.214 121.76 103.619C123.049 101.709 124.337 99.7538 125.582 97.8434C127.626 94.689 130.159 88.1581 130.336 79.7613C130.425 75.363 129.759 71.4089 128.914 68.3434C128.47 66.6995 127.981 65.2334 127.492 64.0783C122.338 54.6152 116.027 49.3727 112.072 46.6626C110.384 45.4631 108.295 44.0414 105.14 42.753C95.3193 38.7101 86.2096 40.5761 82.4768 41.3758C80.2549 41.8645 76.6554 42.6642 72.4782 44.93C66.8791 48.0399 63.324 52.0384 61.3688 54.5264C56.6584 60.613 51.9924 66.6107 47.282 72.6529C47.1931 73.1416 47.0598 73.9413 46.9264 74.9631C45.1489 77.3622 43.327 79.8502 41.5495 82.2937C33.6395 93.0008 26.0406 103.708 18.7084 114.326C18.5306 113.971 18.3084 113.615 18.1307 113.215C12.1316 98.7764 0 70.0761 0 70.0761C0 70.0761 14.6201 48.4842 27.3738 31.8238C31.5954 26.3148 37.3279 18.9842 47.3708 12.5422C47.9485 12.1423 48.5706 11.7425 49.1928 11.3426C55.503 7.56626 67.1457 1.96837 82.4323 0.413404C89.6757 -0.386295 97.008 -0.0308734 104.251 1.5241C105.807 1.87952 109.095 2.54593 113.183 3.83434C125.182 7.61069 133.269 13.253 135.536 14.8524C137.891 16.5407 144.601 21.561 151.311 30.0467C154.999 34.756 164.687 47.3735 167.798 65.9443C168.242 68.2989 168.553 70.8313 168.686 73.4081V73.4526Z" fill="url(#paint3_linear_33_89)"/>
</g>
<defs>
<filter id="filter0_i_33_89" x="18.0862" y="72.9059" width="55.248" height="104.155" filterUnits="userSpaceOnUse" color-interpolation-filters="sRGB">
<feFlood flood-opacity="0" result="BackgroundImageFix"/>
<feBlend mode="normal" in="SourceGraphic" in2="BackgroundImageFix" result="shape"/>
<feColorMatrix in="SourceAlpha" type="matrix" values="0 0 0 0 0 0 0 0 0 0 0 0 0 0 0 0 0 0 127 0" result="hardAlpha"/>
<feOffset dy="4"/>
<feGaussianBlur stdDeviation="2"/>
<feComposite in2="hardAlpha" operator="arithmetic" k2="-1" k3="1"/>
<feColorMatrix type="matrix" values="0 0 0 0 0 0 0 0 0 0 0 0 0 0 0 0 0 0 0.25 0"/>
<feBlend mode="normal" in2="shape" result="effect1_innerShadow_33_89"/>
</filter>
<filter id="filter1_i_33_89" x="78.3439" y="66.6847" width="129.279" height="173.315" filterUnits="userSpaceOnUse" color-interpolation-filters="sRGB">
<feFlood flood-opacity="0" result="BackgroundImageFix"/>
<feBlend mode="normal" in="SourceGraphic" in2="BackgroundImageFix" result="shape"/>
<feColorMatrix in="SourceAlpha" type="matrix" values="0 0 0 0 0 0 0 0 0 0 0 0 0 0 0 0 0 0 127 0" result="hardAlpha"/>
<feOffset dy="4"/>
<feGaussianBlur stdDeviation="2"/>
<feComposite in2="hardAlpha" operator="arithmetic" k2="-1" k3="1"/>
<feColorMatrix type="matrix" values="0 0 0 0 0 0 0 0 0 0 0 0 0 0 0 0 0 0 0.25 0"/>
<feBlend mode="normal" in2="shape" result="effect1_innerShadow_33_89"/>
</filter>
<filter id="filter2_i_33_89" x="0" y="0" width="168.792" height="237.17" filterUnits="userSpaceOnUse" color-interpolation-filters="sRGB">
<feFlood flood-opacity="0" result="BackgroundImageFix"/>
<feBlend mode="normal" in="SourceGraphic" in2="BackgroundImageFix" result="shape"/>
<feColorMatrix in="SourceAlpha" type="matrix" values="0 0 0 0 0 0 0 0 0 0 0 0 0 0 0 0 0 0 127 0" result="hardAlpha"/>
<feOffset dy="4"/>
<feGaussianBlur stdDeviation="2"/>
<feComposite in2="hardAlpha" operator="arithmetic" k2="-1" k3="1"/>
<feColorMatrix type="matrix" values="0 0 0 0 0 0 0 0 0 0 0 0 0 0 0 0 0 0 0.25 0"/>
<feBlend mode="normal" in2="shape" result="effect1_innerShadow_33_89"/>
</filter>
<linearGradient id="paint0_linear_33_89" x1="19.7969" y1="124.405" x2="58.7343" y2="161.497" gradientUnits="userSpaceOnUse">
<stop stop-color="#DDDCDC"/>
<stop offset="1" stop-color="white"/>
</linearGradient>
<linearGradient id="paint1_linear_33_89" x1="131.301" y1="219.222" x2="204.042" y2="208.841" gradientUnits="userSpaceOnUse">
<stop stop-color="#B9B8B8"/>
<stop offset="1" stop-color="white"/>
</linearGradient>
<linearGradient id="paint2_linear_33_89" x1="82.347" y1="152.947" x2="210.056" y2="145.313" gradientUnits="userSpaceOnUse">
<stop stop-color="#C8C8C8"/>
<stop offset="1" stop-color="white"/>
</linearGradient>
<linearGradient id="paint3_linear_33_89" x1="14.8531" y1="-2.54305e-06" x2="121.921" y2="160.879" gradientUnits="userSpaceOnUse">
<stop stop-color="white"/>
<stop offset="1" stop-color="white"/>
</linearGradient>
</defs>
</svg>
