<svg width="37" height="43" viewBox="0 0 37 43" fill="none" xmlns="http://www.w3.org/2000/svg">
<g filter="url(#filter0_d_540_2107)">
<path d="M29.5887 14.2021C29.5887 20.2371 18.7194 30.593 18.7194 30.593C18.7194 30.593 7.8501 20.2371 7.8501 14.2021C7.8501 8.1672 12.7164 3.2749 18.7194 3.2749C24.7223 3.2749 29.5887 8.1672 29.5887 14.2021Z" fill="#47C8FF" fill-opacity="0.5" shape-rendering="crispEdges"/>
<path d="M18.7194 30.593L17.6847 31.679L18.7194 32.6648L19.7541 31.679L18.7194 30.593ZM18.7194 30.593C19.7541 31.679 19.7543 31.6788 19.7545 31.6786L19.7552 31.6779L19.7573 31.6759L19.7645 31.6691L19.7903 31.6443C19.8126 31.6228 19.8449 31.5917 19.8865 31.5512C19.9698 31.4704 20.0904 31.3524 20.243 31.2009C20.5483 30.898 20.982 30.4606 21.5016 29.9175C22.5391 28.833 23.9266 27.3188 25.3181 25.6068C26.7049 23.9004 28.1218 21.9658 29.1991 20.0422C30.254 18.1584 31.0887 16.1034 31.0887 14.2021C31.0887 7.3463 25.5583 1.7749 18.7194 1.7749C11.8805 1.7749 6.3501 7.3463 6.3501 14.2021C6.3501 16.1034 7.18473 18.1584 8.23968 20.0422C9.31697 21.9658 10.7338 23.9004 12.1207 25.6068C13.5122 27.3188 14.8996 28.833 15.9372 29.9175C16.4567 30.4606 16.8905 30.898 17.1957 31.2009C17.3484 31.3524 17.469 31.4704 17.5522 31.5512C17.5938 31.5917 17.6261 31.6228 17.6484 31.6443L17.6743 31.6691L17.6815 31.6759L17.6836 31.6779L17.6842 31.6786C17.6845 31.6788 17.6847 31.679 18.7194 30.593Z" stroke="#2FAACC" stroke-width="3" shape-rendering="crispEdges"/>
</g>
<defs>
<filter id="filter0_d_540_2107" x="0.850098" y="0.274902" width="35.7385" height="42.4618" filterUnits="userSpaceOnUse" color-interpolation-filters="sRGB">
<feFlood flood-opacity="0" result="BackgroundImageFix"/>
<feColorMatrix in="SourceAlpha" type="matrix" values="0 0 0 0 0 0 0 0 0 0 0 0 0 0 0 0 0 0 127 0" result="hardAlpha"/>
<feOffset dy="4"/>
<feGaussianBlur stdDeviation="2"/>
<feComposite in2="hardAlpha" operator="out"/>
<feColorMatrix type="matrix" values="0 0 0 0 0 0 0 0 0 0 0 0 0 0 0 0 0 0 0.25 0"/>
<feBlend mode="normal" in2="BackgroundImageFix" result="effect1_dropShadow_540_2107"/>
<feBlend mode="normal" in="SourceGraphic" in2="effect1_dropShadow_540_2107" result="shape"/>
</filter>
</defs>
</svg>
