<svg width="24" height="16" viewBox="0 0 24 16" fill="none" xmlns="http://www.w3.org/2000/svg">
<path d="M0.769531 1.14252C0.769531 0.843908 0.888154 0.557527 1.09931 0.346376C1.31046 0.135225 1.59684 0.0166016 1.89545 0.0166016H22.162C22.4606 0.0166016 22.747 0.135225 22.9581 0.346376C23.1693 0.557527 23.2879 0.843908 23.2879 1.14252C23.2879 1.44113 23.1693 1.72751 22.9581 1.93867C22.747 2.14982 22.4606 2.26844 22.162 2.26844H1.89545C1.59684 2.26844 1.31046 2.14982 1.09931 1.93867C0.888154 1.72751 0.769531 1.44113 0.769531 1.14252Z" fill="#484848"/>
<path d="M0.769531 7.93451C0.769531 7.6359 0.888154 7.34952 1.09931 7.13837C1.31046 6.92722 1.59684 6.80859 1.89545 6.80859H22.162C22.4606 6.80859 22.747 6.92722 22.9581 7.13837C23.1693 7.34952 23.2879 7.6359 23.2879 7.93451C23.2879 8.23312 23.1693 8.51951 22.9581 8.73066C22.747 8.94181 22.4606 9.06043 22.162 9.06043H1.89545C1.59684 9.06043 1.31046 8.94181 1.09931 8.73066C0.888154 8.51951 0.769531 8.23312 0.769531 7.93451Z" fill="#484848"/>
<path d="M1.89545 13.6016C1.59684 13.6016 1.31046 13.7202 1.09931 13.9313C0.888154 14.1425 0.769531 14.4289 0.769531 14.7275C0.769531 15.0261 0.888154 15.3125 1.09931 15.5236C1.31046 15.7348 1.59684 15.8534 1.89545 15.8534H22.162C22.4606 15.8534 22.747 15.7348 22.9581 15.5236C23.1693 15.3125 23.2879 15.0261 23.2879 14.7275C23.2879 14.4289 23.1693 14.1425 22.9581 13.9313C22.747 13.7202 22.4606 13.6016 22.162 13.6016H1.89545Z" fill="#484848"/>
</svg>
